999
DXF created from QGIS
  0
SECTION
  2
HEADER
  9
$ACADVER
  1
AC1015
  9
$EXTMIN
 10
4363673.3603533199056983
 20
6550073.01267541199922562
 30
0.0
  9
$EXTMAX
 10
4372297.80123830121010542
 20
6556777.26894888188689947
 30
0.0
  9
$LTSCALE
 40
1.0
  9
$PDMODE
 70
    33
  9
$PDSIZE
 40
     1
  9
$PSLTSCALE
 70
     0
  9
$HANDSEED
  5
9999999
  9
$DWGCODEPAGE
  3
ANSI_1252
  0
ENDSEC
  0
SECTION
  2
TABLES
  0
TABLE
  2
LTYPE
  5
64
100
AcDbSymbolTable
 70
     5
  0
LTYPE
  5
65
100
AcDbSymbolTableRecord
100
AcDbLinetypeTableRecord
  2
ByLayer
 70
    64
  3
Defaultstyle
 72
    65
 73
     0
 40
0.0
  0
LTYPE
  5
66
100
AcDbSymbolTableRecord
100
AcDbLinetypeTableRecord
  2
ByBlock
 70
    64
  3
Defaultstyle
 72
    65
 73
     0
 40
0.0
  0
LTYPE
  5
67
100
AcDbSymbolTableRecord
100
AcDbLinetypeTableRecord
  2
CONTINUOUS
 70
    64
  3
Defaultstyle
 72
    65
 73
     0
 40
0.0
  0
LTYPE
  5
68
100
AcDbSymbolTableRecord
100
AcDbLinetypeTableRecord
  2
DASH
 70
    64
  3

 72
    65
 73
     2
 40
0.00000002335619739
 49
0.00000001796630568
 74
     0
 49
-0.0000000053898917
 74
     0
  0
LTYPE
  5
69
100
AcDbSymbolTableRecord
100
AcDbLinetypeTableRecord
  2
DOT
 70
    64
  3

 72
    65
 73
     2
 40
0.00000001077978341
 49
0.0000000053898917
 74
     0
 49
-0.0000000053898917
 74
     0
  0
LTYPE
  5
6a
100
AcDbSymbolTableRecord
100
AcDbLinetypeTableRecord
  2
DASHDOT
 70
    64
  3

 72
    65
 73
     4
 40
0.0000000341359808
 49
0.00000001796630568
 74
     0
 49
-0.0000000053898917
 74
     0
 49
0.0000000053898917
 74
     0
 49
-0.0000000053898917
 74
     0
  0
LTYPE
  5
6b
100
AcDbSymbolTableRecord
100
AcDbLinetypeTableRecord
  2
DASHDOTDOT
 70
    64
  3

 72
    65
 73
     6
 40
0.00000004491576421
 49
0.00000001796630568
 74
     0
 49
-0.0000000053898917
 74
     0
 49
0.0000000053898917
 74
     0
 49
-0.0000000053898917
 74
     0
 49
0.0000000053898917
 74
     0
 49
-0.0000000053898917
 74
     0
  0
ENDTAB
  0
TABLE
  2
BLOCK_RECORD
  5
6c
100
AcDbSymbolTable
 70
     0
  0
BLOCK_RECORD
  5
6d
100
AcDbSymbolTableRecord
100
AcDbBlockTableRecord
  2
*Model_Space
  0
BLOCK_RECORD
  5
6e
100
AcDbSymbolTableRecord
100
AcDbBlockTableRecord
  2
*Paper_Space
  0
BLOCK_RECORD
  5
6f
100
AcDbSymbolTableRecord
100
AcDbBlockTableRecord
  2
*Paper_Space0
  0
ENDTAB
  0
TABLE
  2
APPID
  5
70
100
AcDbSymbolTable
 70
     1
  0
APPID
  5
71
100
AcDbSymbolTableRecord
100
AcDbRegAppTableRecord
  2
ACAD
 70
     0
  0
ENDTAB
  0
TABLE
  2
VIEW
  5
72
100
AcDbSymbolTable
 70
     0
  0
ENDTAB
  0
TABLE
  2
UCS
  5
73
100
AcDbSymbolTable
 70
     0
  0
ENDTAB
  0
TABLE
  2
VPORT
  5
74
100
AcDbSymbolTable
  0
VPORT
  5
75
100
AcDbSymbolTableRecord
100
AcDbViewportTableRecord
  2
*ACTIVE
 70
     0
 10
0.0
 20
0.0
 11
1.0
 21
1.0
 12
0.0
 22
0.0
 13
0.0
 23
0.0
 14
1.0
 24
1.0
 15
1.0
 25
1.0
 16
0.0
 26
0.0
 36
1.0
 17
4367985.58079581055790186
 27
6553425.14081214740872383
 40
6704.25627346988767385
 41
1.28641277021434575
 42
50.0
 43
0.0
 44
0.0
 50
0.0
 51
0.0
 71
     0
 72
   100
 73
     1
 74
     1
 75
     0
 76
     0
 77
     0
 78
     0
281
     0
 65
     1
110
0.0
120
0.0
130
0.0
111
1.0
121
0.0
131
0.0
112
0.0
122
1.0
132
0.0
 79
     0
146
0.0
 70
     0
  0
ENDTAB
  0
TABLE
  2
DIMSTYLE
  5
76
100
AcDbSymbolTable
100
AcDbDimStyleTable
 70
     0
  0
ENDTAB
  0
TABLE
  2
LAYER
  5
77
100
AcDbSymbolTable
 70
     2
  0
LAYER
  5
78
100
AcDbSymbolTableRecord
100
AcDbLayerTableRecord
  2
0
 70
    64
 62
     1
  6
CONTINUOUS
390
f
  0
LAYER
  5
79
100
AcDbSymbolTableRecord
100
AcDbLayerTableRecord
  2
Polígonos a partir de líneas
 70
    64
 62
     1
  6
CONTINUOUS
390
f
  0
ENDTAB
  0
TABLE
  2
STYLE
  5
7a
100
AcDbSymbolTable
 70
     1
  0
STYLE
  5
7b
100
AcDbSymbolTableRecord
100
AcDbTextStyleTableRecord
  2
STANDARD
 70
    64
 40
0.0
 41
1.0
 50
0.0
 71
     0
 42
5.0
  3
romans.shx
  4

  0
ENDTAB
  0
ENDSEC
  0
SECTION
  2
BLOCKS
  0
BLOCK
  5
7c
330
6d
100
AcDbEntity
  8
0
100
AcDbBlockBegin
  2
*Model_Space
 70
     0
 10
0.0
 20
0.0
 30
0.0
  3
*Model_Space
  1

  0
ENDBLK
  5
7d
100
AcDbEntity
  8
0
100
AcDbBlockEnd
  0
BLOCK
  5
7e
330
6e
100
AcDbEntity
  8
0
100
AcDbBlockBegin
  2
*Paper_Space
 70
     0
 10
0.0
 20
0.0
 30
0.0
  3
*Paper_Space
  1

  0
ENDBLK
  5
7f
100
AcDbEntity
  8
0
100
AcDbBlockEnd
  0
BLOCK
  5
80
330
6f
100
AcDbEntity
  8
0
100
AcDbBlockBegin
  2
*Paper_Space0
 70
     0
 10
0.0
 20
0.0
 30
0.0
  3
*Paper_Space0
  1

  0
ENDBLK
  5
81
100
AcDbEntity
  8
0
100
AcDbBlockEnd
  0
ENDSEC
  0
SECTION
  2
ENTITIES
  0
LWPOLYLINE
  5
82
  8
Polígonos a partir de líneas
100
AcDbEntity
100
AcDbPolyline
  6
CONTINUOUS
420
     0
 90
   202
 70
     1
 43
0.00000000233561974
 10
4371192.74678858742117882
 20
6554651.65104142762720585
 10
4371186.61433043237775564
 20
6554749.48160452302545309
 10
4371150.68132696859538555
 20
6554847.99453132878988981
 10
4371180.67893094755709171
 20
6554928.04812909010797739
 10
4371248.60431861877441406
 20
6555009.95904563739895821
 10
4371287.6062241168692708
 20
6555087.31181417033076286
 10
4371252.14374047610908747
 20
6555160.54402652755379677
 10
4371136.68483431544154882
 20
6555250.1202687481418252
 10
4371041.0651342011988163
 20
6555344.71612237766385078
 10
4370909.92090995982289314
 20
6555333.98443987034261227
 10
4370838.97854280099272728
 20
6555379.8446217980235815
 10
4370827.3785016406327486
 20
6555515.25114911049604416
 10
4370802.97979375347495079
 20
6555622.8611471364274621
 10
4370728.01031466666609049
 20
6555724.21964528504759073
 10
4370658.44334766548126936
 20
6555708.85459969099611044
 10
4370611.02057991083711386
 20
6555708.00980617944151163
 10
4370553.48684722930192947
 20
6555699.60147036891430616
 10
4370498.81231791619211435
 20
6555746.06175390724092722
 10
4370481.01885719876736403
 20
6555861.47716556210070848
 10
4370511.57311747502535582
 20
6555984.66853983886539936
 10
4370565.02593186032027006
 20
6556054.97033052332699299
 10
4370566.90075602568686008
 20
6556174.35384352039545774
 10
4370512.7867409884929657
 20
6556263.03608016390353441
 10
4370460.50945594720542431
 20
6556346.57539918459951878
 10
4370489.37046696059405804
 20
6556437.51097510103136301
 10
4370431.60851569939404726
 20
6556598.37757748272269964
 10
4370339.68550852127373219
 20
6556707.87708955258131027
 10
4370132.90316554810851812
 20
6556696.73834895435720682
 10
4370047.93101585656404495
 20
6556623.81668646354228258
 10
4369812.87926373165100813
 20
6556604.27852956857532263
 10
4369634.03782884497195482
 20
6556517.24810368567705154
 10
4369508.38643471337854862
 20
6556482.24132039397954941
 10
4369369.25406679511070251
 20
6556509.8558247396722436
 10
4369315.11098247487097979
 20
6556584.52956632990390062
 10
4369244.70276329107582569
 20
6556687.71947369538247585
 10
4368963.81549642514437437
 20
6556738.53147457726299763
 10
4368787.10046316590160131
 20
6556765.88117070402950048
 10
4368664.96317422948777676
 20
6556777.26894888188689947
 10
4368585.63292665220797062
 20
6556768.60604001022875309
 10
4368506.05521160736680031
 20
6556663.8383852019906044
 10
4368465.83795331604778767
 20
6556537.68468683864921331
 10
4368404.19137095753103495
 20
6556496.45903113856911659
 10
4368097.00183226354420185
 20
6556456.62972935382276773
 10
4367972.28113476373255253
 20
6556412.90017951093614101
 10
4367576.68155901506543159
 20
6556397.60066555999219418
 10
4367393.41626376751810312
 20
6556385.14206208195537329
 10
4367248.5935959666967392
 20
6556438.89334233663976192
 10
4367123.1855181185528636
 20
6556360.52953653782606125
 10
4366993.72249591443687677
 20
6556199.60266447160393
 10
4366896.95635512564331293
 20
6555979.13893968611955643
 10
4366813.97654126677662134
 20
6555797.00468880496919155
 10
4366732.94355042092502117
 20
6555690.14164573792368174
 10
4366610.22222933731973171
 20
6555665.79800728615373373
 10
4366276.93496758118271828
 20
6555675.636248211376369
 10
4366173.0562675790861249
 20
6555747.93390191718935966
 10
4365975.60106578189879656
 20
6555735.12546052318066359
 10
4365803.40090317837893963
 20
6555805.29370444174855947
 10
4365662.86314793862402439
 20
6555909.40919280517846346
 10
4365501.03632564656436443
 20
6556047.96116772294044495
 10
4365045.21669856552034616
 20
6555963.85977624356746674
 10
4364815.08144961018115282
 20
6555896.1967219989746809
 10
4364737.78365598805248737
 20
6555966.51178897544741631
 10
4364657.91016442235559225
 20
6556052.01370151340961456
 10
4364455.85826169606298208
 20
6556207.46815940923988819
 10
4364194.0166370952501893
 20
6556254.50517864525318146
 10
4364002.96730358339846134
 20
6556217.30414106696844101
 10
4363896.33289121929556131
 20
6556187.84305054415017366
 10
4363759.46700916346162558
 20
6555969.07862796075642109
 10
4363777.06249553151428699
 20
6555841.4875001460313797
 10
4363770.17362215276807547
 20
6555592.98693708423525095
 10
4363757.1431322144344449
 20
6555424.67110929824411869
 10
4363717.49724981654435396
 20
6555199.15169496741145849
 10
4363673.3603533199056983
 20
6555057.04439679719507694
 10
4363679.21408888231962919
 20
6554923.68406096566468477
 10
4363704.48008057102560997
 20
6554748.64062941819429398
 10
4363872.90657101199030876
 20
6554713.4767049653455615
 10
4363946.91483683791011572
 20
6554597.9389973059296608
 10
4364029.17101777531206608
 20
6554521.58326946385204792
 10
4364184.52264512982219458
 20
6554431.09792503248900175
 10
4364323.50648323260247707
 20
6554301.9347295006737113
 10
4364321.64063997287303209
 20
6554142.66910795401781797
 10
4364287.15075481683015823
 20
6553994.23867218662053347
 10
4364285.472963472828269
 20
6553720.57155865430831909
 10
4364293.39550477266311646
 20
6553464.93861502129584551
 10
4364365.25070179998874664
 20
6553313.15525348391383886
 10
4364411.86125042475759983
 20
6553161.12783134169876575
 10
4364266.88161942549049854
 20
6553086.88236145954579115
 10
4364217.00042066257447004
 20
6553003.97107118368148804
 10
4364189.88953319098800421
 20
6552851.48251256532967091
 10
4364269.92435932252556086
 20
6552724.47079646121710539
 10
4364323.59948043990880251
 20
6552614.70668404642492533
 10
4364410.45069431979209185
 20
6552527.1257666302844882
 10
4364497.36323181912302971
 20
6552441.4836390782147646
 10
4364769.86508931871503592
 20
6552240.72623787727206945
 10
4364834.59052675403654575
 20
6552142.20514705311506987
 10
4364935.31637052353471518
 20
6551859.11032049264758825
 10
4365105.87927518039941788
 20
6551638.50258012395352125
 10
4365158.1660020500421524
 20
6551568.37162460759282112
 10
4365132.09477034397423267
 20
6551273.311727499589324
 10
4365172.58748529385775328
 20
6551108.55796762648969889
 10
4365253.3420793991535902
 20
6550909.06833425257354975
 10
4365254.41333950869739056
 20
6550755.2286308454349637
 10
4365318.82294977083802223
 20
6550589.10259529016911983
 10
4365439.52034375537186861
 20
6550521.2899729385972023
 10
4365660.36478284280747175
 20
6550435.25445422530174255
 10
4365746.14583420846611261
 20
6550372.90762485284358263
 10
4365757.99087353143841028
 20
6550368.91772775445133448
 10
4365959.46632539480924606
 20
6550297.07180777192115784
 10
4366082.92056732345372438
 20
6550284.68364051915705204
 10
4366092.41321351286023855
 20
6550284.53860502317547798
 10
4366122.83438463136553764
 20
6550284.49992772936820984
 10
4366282.80438579246401787
 20
6550286.29835433606058359
 10
4366488.40129994042217731
 20
6550306.58154040202498436
 10
4366502.40728699881583452
 20
6550310.82311526592820883
 10
4366616.52072861697524786
 20
6550338.23358206823468208
 10
4366752.11169280670583248
 20
6550635.19165985099971294
 10
4367053.7686947425827384
 20
6550671.54685587622225285
 10
4367188.36311112158000469
 20
6550512.26922751776874065
 10
4367381.24285044427961111
 20
6550267.88048100285232067
 10
4367494.17648174799978733
 20
6550182.74755853600800037
 10
4367600.95069192163646221
 20
6550147.88045913353562355
 10
4367859.21251537743955851
 20
6550166.56467991601675749
 10
4367988.29349876567721367
 20
6550073.01267541199922562
 10
4368325.34677882213145494
 20
6550073.49073371291160583
 10
4368377.61619316879659891
 20
6550093.4925563633441925
 10
4368491.08697053231298923
 20
6550186.11326320189982653
 10
4368498.89992434531450272
 20
6550189.49833553936332464
 10
4368622.15368164889514446
 20
6550274.28474546037614346
 10
4368654.68848773837089539
 20
6550333.11646627821028233
 10
4368684.97067484445869923
 20
6550613.13301521819084883
 10
4368811.23755656648427248
 20
6550748.75066585745662451
 10
4368885.19486513640731573
 20
6550808.47772530652582645
 10
4368979.23525300342589617
 20
6550995.78310432471334934
 10
4369028.15162343345582485
 20
6551089.86689566075801849
 10
4368955.19792395737022161
 20
6551266.69772250391542912
 10
4368886.02910799719393253
 20
6551393.38875541836023331
 10
4368815.40962646715342999
 20
6551515.4840457271784544
 10
4368781.06464344542473555
 20
6551639.41477235779166222
 10
4368764.15399531740695238
 20
6551812.65369461756199598
 10
4369024.41415232606232166
 20
6551796.93019272666424513
 10
4369164.82360634580254555
 20
6551724.45179645903408527
 10
4369420.59486636612564325
 20
6551702.44057028368115425
 10
4369553.33664044085890055
 20
6551733.98196231480687857
 10
4369649.51880758814513683
 20
6551883.36112070828676224
 10
4369699.30560825299471617
 20
6551993.91223701369017363
 10
4369783.88204522337764502
 20
6552139.46439502295106649
 10
4369852.62589585781097412
 20
6552200.49376469012349844
 10
4369941.05457127280533314
 20
6552303.66716505400836468
 10
4369999.90875061973929405
 20
6552363.37691683974117041
 10
4370109.00371698942035437
 20
6552401.3903401056304574
 10
4370223.70890064164996147
 20
6552469.75246295053511858
 10
4370285.84845034778118134
 20
6552578.22402141243219376
 10
4370360.6941687585785985
 20
6552652.18547214567661285
 10
4370484.48691446706652641
 20
6552774.84888045769184828
 10
4370610.11731078661978245
 20
6552789.49770904239267111
 10
4370717.08974594715982676
 20
6552855.22563884593546391
 10
4370909.82125185802578926
 20
6552884.39289220981299877
 10
4371023.83505451586097479
 20
6552878.68813754245638847
 10
4371178.66049664001911879
 20
6552880.23361057415604591
 10
4371288.27032127324491739
 20
6552862.25377180520445108
 10
4371339.17819257639348507
 20
6552791.12693203985691071
 10
4371438.42464589886367321
 20
6552714.65490627661347389
 10
4371494.1552923172712326
 20
6552637.65356805361807346
 10
4371528.69316576048731804
 20
6552601.95171067863702774
 10
4371602.70996885187923908
 20
6552619.25866764225065708
 10
4371688.11801850516349077
 20
6552676.9513008976355195
 10
4371721.26476538460701704
 20
6552716.89618782233446836
 10
4371731.17397171631455421
 20
6552750.01625620387494564
 10
4371750.29833179339766502
 20
6552837.21985277626663446
 10
4371869.73594113904982805
 20
6552952.2393238078802824
 10
4371941.57174933329224586
 20
6552994.64004543051123619
 10
4371999.75818371120840311
 20
6553082.15147661231458187
 10
4372046.28390995692461729
 20
6553184.21353826764971018
 10
4372131.158240114338696
 20
6553277.51537417341023684
 10
4372179.48943299427628517
 20
6553365.82753447070717812
 10
4372247.43337470665574074
 20
6553399.31826143991202116
 10
4372297.80123830121010542
 20
6553432.71579927019774914
 10
4372277.50651467498391867
 20
6553509.02524772845208645
 10
4372197.45534234214574099
 20
6553613.89329698588699102
 10
4372126.71811892464756966
 20
6553671.46095121372491121
 10
4372096.76968413032591343
 20
6553737.36361447907984257
 10
4372092.24747603945434093
 20
6553763.13807443808764219
 10
4372084.32502417545765638
 20
6553800.2079467112198472
 10
4372082.91877711936831474
 20
6553835.96818990726023912
 10
4372085.335041468963027
 20
6553862.65081454068422318
 10
4372091.88018208462744951
 20
6553895.27511749882251024
 10
4372100.2110593244433403
 20
6553922.20159755367785692
 10
4372108.4156098160892725
 20
6553942.06269891001284122
 10
4372124.44512634538114071
 20
6553968.3027993543073535
 10
4372147.65553648583590984
 20
6554015.98703393712639809
 10
4372222.11500457674264908
 20
6554080.925552680157125
 10
4372247.11738182511180639
 20
6554165.37237421050667763
 10
4372224.06686298549175262
 20
6554236.7724657841026783
 10
4372155.14209184888750315
 20
6554288.19220792595297098
 10
4372094.75701665040105581
 20
6554340.63454885967075825
 10
4372039.1958495806902647
 20
6554485.04499339405447245
 10
4371924.6940240291878581
 20
6554575.23759180214256048
 10
4371761.05029121693223715
 20
6554631.81210949644446373
 10
4371688.78137042559683323
 20
6554628.39644774422049522
 10
4371595.05044470634311438
 20
6554635.58910980354994535
 10
4371462.59760727360844612
 20
6554713.36532872729003429
 10
4371310.36327310092747211
 20
6554673.47974019777029753
  0
HATCH
  5
83
330
6d
100
AcDbEntity
  8
Polígonos a partir de líneas
420
8555597
100
AcDbHatch
 10
0.0
 20
0.0
 30
0.0
210
0.0
220
0.0
230
1.0
  2
SOLID
 70
     1
 71
     0
 91
     1
 92
     2
 72
     0
 73
     1
 93
   203
 10
4371192.74678858742117882
 20
6554651.65104142762720585
 10
4371186.61433043237775564
 20
6554749.48160452302545309
 10
4371150.68132696859538555
 20
6554847.99453132878988981
 10
4371180.67893094755709171
 20
6554928.04812909010797739
 10
4371248.60431861877441406
 20
6555009.95904563739895821
 10
4371287.6062241168692708
 20
6555087.31181417033076286
 10
4371252.14374047610908747
 20
6555160.54402652755379677
 10
4371136.68483431544154882
 20
6555250.1202687481418252
 10
4371041.0651342011988163
 20
6555344.71612237766385078
 10
4370909.92090995982289314
 20
6555333.98443987034261227
 10
4370838.97854280099272728
 20
6555379.8446217980235815
 10
4370827.3785016406327486
 20
6555515.25114911049604416
 10
4370802.97979375347495079
 20
6555622.8611471364274621
 10
4370728.01031466666609049
 20
6555724.21964528504759073
 10
4370658.44334766548126936
 20
6555708.85459969099611044
 10
4370611.02057991083711386
 20
6555708.00980617944151163
 10
4370553.48684722930192947
 20
6555699.60147036891430616
 10
4370498.81231791619211435
 20
6555746.06175390724092722
 10
4370481.01885719876736403
 20
6555861.47716556210070848
 10
4370511.57311747502535582
 20
6555984.66853983886539936
 10
4370565.02593186032027006
 20
6556054.97033052332699299
 10
4370566.90075602568686008
 20
6556174.35384352039545774
 10
4370512.7867409884929657
 20
6556263.03608016390353441
 10
4370460.50945594720542431
 20
6556346.57539918459951878
 10
4370489.37046696059405804
 20
6556437.51097510103136301
 10
4370431.60851569939404726
 20
6556598.37757748272269964
 10
4370339.68550852127373219
 20
6556707.87708955258131027
 10
4370132.90316554810851812
 20
6556696.73834895435720682
 10
4370047.93101585656404495
 20
6556623.81668646354228258
 10
4369812.87926373165100813
 20
6556604.27852956857532263
 10
4369634.03782884497195482
 20
6556517.24810368567705154
 10
4369508.38643471337854862
 20
6556482.24132039397954941
 10
4369369.25406679511070251
 20
6556509.8558247396722436
 10
4369315.11098247487097979
 20
6556584.52956632990390062
 10
4369244.70276329107582569
 20
6556687.71947369538247585
 10
4368963.81549642514437437
 20
6556738.53147457726299763
 10
4368787.10046316590160131
 20
6556765.88117070402950048
 10
4368664.96317422948777676
 20
6556777.26894888188689947
 10
4368585.63292665220797062
 20
6556768.60604001022875309
 10
4368506.05521160736680031
 20
6556663.8383852019906044
 10
4368465.83795331604778767
 20
6556537.68468683864921331
 10
4368404.19137095753103495
 20
6556496.45903113856911659
 10
4368097.00183226354420185
 20
6556456.62972935382276773
 10
4367972.28113476373255253
 20
6556412.90017951093614101
 10
4367576.68155901506543159
 20
6556397.60066555999219418
 10
4367393.41626376751810312
 20
6556385.14206208195537329
 10
4367248.5935959666967392
 20
6556438.89334233663976192
 10
4367123.1855181185528636
 20
6556360.52953653782606125
 10
4366993.72249591443687677
 20
6556199.60266447160393
 10
4366896.95635512564331293
 20
6555979.13893968611955643
 10
4366813.97654126677662134
 20
6555797.00468880496919155
 10
4366732.94355042092502117
 20
6555690.14164573792368174
 10
4366610.22222933731973171
 20
6555665.79800728615373373
 10
4366276.93496758118271828
 20
6555675.636248211376369
 10
4366173.0562675790861249
 20
6555747.93390191718935966
 10
4365975.60106578189879656
 20
6555735.12546052318066359
 10
4365803.40090317837893963
 20
6555805.29370444174855947
 10
4365662.86314793862402439
 20
6555909.40919280517846346
 10
4365501.03632564656436443
 20
6556047.96116772294044495
 10
4365045.21669856552034616
 20
6555963.85977624356746674
 10
4364815.08144961018115282
 20
6555896.1967219989746809
 10
4364737.78365598805248737
 20
6555966.51178897544741631
 10
4364657.91016442235559225
 20
6556052.01370151340961456
 10
4364455.85826169606298208
 20
6556207.46815940923988819
 10
4364194.0166370952501893
 20
6556254.50517864525318146
 10
4364002.96730358339846134
 20
6556217.30414106696844101
 10
4363896.33289121929556131
 20
6556187.84305054415017366
 10
4363759.46700916346162558
 20
6555969.07862796075642109
 10
4363777.06249553151428699
 20
6555841.4875001460313797
 10
4363770.17362215276807547
 20
6555592.98693708423525095
 10
4363757.1431322144344449
 20
6555424.67110929824411869
 10
4363717.49724981654435396
 20
6555199.15169496741145849
 10
4363673.3603533199056983
 20
6555057.04439679719507694
 10
4363679.21408888231962919
 20
6554923.68406096566468477
 10
4363704.48008057102560997
 20
6554748.64062941819429398
 10
4363872.90657101199030876
 20
6554713.4767049653455615
 10
4363946.91483683791011572
 20
6554597.9389973059296608
 10
4364029.17101777531206608
 20
6554521.58326946385204792
 10
4364184.52264512982219458
 20
6554431.09792503248900175
 10
4364323.50648323260247707
 20
6554301.9347295006737113
 10
4364321.64063997287303209
 20
6554142.66910795401781797
 10
4364287.15075481683015823
 20
6553994.23867218662053347
 10
4364285.472963472828269
 20
6553720.57155865430831909
 10
4364293.39550477266311646
 20
6553464.93861502129584551
 10
4364365.25070179998874664
 20
6553313.15525348391383886
 10
4364411.86125042475759983
 20
6553161.12783134169876575
 10
4364266.88161942549049854
 20
6553086.88236145954579115
 10
4364217.00042066257447004
 20
6553003.97107118368148804
 10
4364189.88953319098800421
 20
6552851.48251256532967091
 10
4364269.92435932252556086
 20
6552724.47079646121710539
 10
4364323.59948043990880251
 20
6552614.70668404642492533
 10
4364410.45069431979209185
 20
6552527.1257666302844882
 10
4364497.36323181912302971
 20
6552441.4836390782147646
 10
4364769.86508931871503592
 20
6552240.72623787727206945
 10
4364834.59052675403654575
 20
6552142.20514705311506987
 10
4364935.31637052353471518
 20
6551859.11032049264758825
 10
4365105.87927518039941788
 20
6551638.50258012395352125
 10
4365158.1660020500421524
 20
6551568.37162460759282112
 10
4365132.09477034397423267
 20
6551273.311727499589324
 10
4365172.58748529385775328
 20
6551108.55796762648969889
 10
4365253.3420793991535902
 20
6550909.06833425257354975
 10
4365254.41333950869739056
 20
6550755.2286308454349637
 10
4365318.82294977083802223
 20
6550589.10259529016911983
 10
4365439.52034375537186861
 20
6550521.2899729385972023
 10
4365660.36478284280747175
 20
6550435.25445422530174255
 10
4365746.14583420846611261
 20
6550372.90762485284358263
 10
4365757.99087353143841028
 20
6550368.91772775445133448
 10
4365959.46632539480924606
 20
6550297.07180777192115784
 10
4366082.92056732345372438
 20
6550284.68364051915705204
 10
4366092.41321351286023855
 20
6550284.53860502317547798
 10
4366122.83438463136553764
 20
6550284.49992772936820984
 10
4366282.80438579246401787
 20
6550286.29835433606058359
 10
4366488.40129994042217731
 20
6550306.58154040202498436
 10
4366502.40728699881583452
 20
6550310.82311526592820883
 10
4366616.52072861697524786
 20
6550338.23358206823468208
 10
4366752.11169280670583248
 20
6550635.19165985099971294
 10
4367053.7686947425827384
 20
6550671.54685587622225285
 10
4367188.36311112158000469
 20
6550512.26922751776874065
 10
4367381.24285044427961111
 20
6550267.88048100285232067
 10
4367494.17648174799978733
 20
6550182.74755853600800037
 10
4367600.95069192163646221
 20
6550147.88045913353562355
 10
4367859.21251537743955851
 20
6550166.56467991601675749
 10
4367988.29349876567721367
 20
6550073.01267541199922562
 10
4368325.34677882213145494
 20
6550073.49073371291160583
 10
4368377.61619316879659891
 20
6550093.4925563633441925
 10
4368491.08697053231298923
 20
6550186.11326320189982653
 10
4368498.89992434531450272
 20
6550189.49833553936332464
 10
4368622.15368164889514446
 20
6550274.28474546037614346
 10
4368654.68848773837089539
 20
6550333.11646627821028233
 10
4368684.97067484445869923
 20
6550613.13301521819084883
 10
4368811.23755656648427248
 20
6550748.75066585745662451
 10
4368885.19486513640731573
 20
6550808.47772530652582645
 10
4368979.23525300342589617
 20
6550995.78310432471334934
 10
4369028.15162343345582485
 20
6551089.86689566075801849
 10
4368955.19792395737022161
 20
6551266.69772250391542912
 10
4368886.02910799719393253
 20
6551393.38875541836023331
 10
4368815.40962646715342999
 20
6551515.4840457271784544
 10
4368781.06464344542473555
 20
6551639.41477235779166222
 10
4368764.15399531740695238
 20
6551812.65369461756199598
 10
4369024.41415232606232166
 20
6551796.93019272666424513
 10
4369164.82360634580254555
 20
6551724.45179645903408527
 10
4369420.59486636612564325
 20
6551702.44057028368115425
 10
4369553.33664044085890055
 20
6551733.98196231480687857
 10
4369649.51880758814513683
 20
6551883.36112070828676224
 10
4369699.30560825299471617
 20
6551993.91223701369017363
 10
4369783.88204522337764502
 20
6552139.46439502295106649
 10
4369852.62589585781097412
 20
6552200.49376469012349844
 10
4369941.05457127280533314
 20
6552303.66716505400836468
 10
4369999.90875061973929405
 20
6552363.37691683974117041
 10
4370109.00371698942035437
 20
6552401.3903401056304574
 10
4370223.70890064164996147
 20
6552469.75246295053511858
 10
4370285.84845034778118134
 20
6552578.22402141243219376
 10
4370360.6941687585785985
 20
6552652.18547214567661285
 10
4370484.48691446706652641
 20
6552774.84888045769184828
 10
4370610.11731078661978245
 20
6552789.49770904239267111
 10
4370717.08974594715982676
 20
6552855.22563884593546391
 10
4370909.82125185802578926
 20
6552884.39289220981299877
 10
4371023.83505451586097479
 20
6552878.68813754245638847
 10
4371178.66049664001911879
 20
6552880.23361057415604591
 10
4371288.27032127324491739
 20
6552862.25377180520445108
 10
4371339.17819257639348507
 20
6552791.12693203985691071
 10
4371438.42464589886367321
 20
6552714.65490627661347389
 10
4371494.1552923172712326
 20
6552637.65356805361807346
 10
4371528.69316576048731804
 20
6552601.95171067863702774
 10
4371602.70996885187923908
 20
6552619.25866764225065708
 10
4371688.11801850516349077
 20
6552676.9513008976355195
 10
4371721.26476538460701704
 20
6552716.89618782233446836
 10
4371731.17397171631455421
 20
6552750.01625620387494564
 10
4371750.29833179339766502
 20
6552837.21985277626663446
 10
4371869.73594113904982805
 20
6552952.2393238078802824
 10
4371941.57174933329224586
 20
6552994.64004543051123619
 10
4371999.75818371120840311
 20
6553082.15147661231458187
 10
4372046.28390995692461729
 20
6553184.21353826764971018
 10
4372131.158240114338696
 20
6553277.51537417341023684
 10
4372179.48943299427628517
 20
6553365.82753447070717812
 10
4372247.43337470665574074
 20
6553399.31826143991202116
 10
4372297.80123830121010542
 20
6553432.71579927019774914
 10
4372277.50651467498391867
 20
6553509.02524772845208645
 10
4372197.45534234214574099
 20
6553613.89329698588699102
 10
4372126.71811892464756966
 20
6553671.46095121372491121
 10
4372096.76968413032591343
 20
6553737.36361447907984257
 10
4372092.24747603945434093
 20
6553763.13807443808764219
 10
4372084.32502417545765638
 20
6553800.2079467112198472
 10
4372082.91877711936831474
 20
6553835.96818990726023912
 10
4372085.335041468963027
 20
6553862.65081454068422318
 10
4372091.88018208462744951
 20
6553895.27511749882251024
 10
4372100.2110593244433403
 20
6553922.20159755367785692
 10
4372108.4156098160892725
 20
6553942.06269891001284122
 10
4372124.44512634538114071
 20
6553968.3027993543073535
 10
4372147.65553648583590984
 20
6554015.98703393712639809
 10
4372222.11500457674264908
 20
6554080.925552680157125
 10
4372247.11738182511180639
 20
6554165.37237421050667763
 10
4372224.06686298549175262
 20
6554236.7724657841026783
 10
4372155.14209184888750315
 20
6554288.19220792595297098
 10
4372094.75701665040105581
 20
6554340.63454885967075825
 10
4372039.1958495806902647
 20
6554485.04499339405447245
 10
4371924.6940240291878581
 20
6554575.23759180214256048
 10
4371761.05029121693223715
 20
6554631.81210949644446373
 10
4371688.78137042559683323
 20
6554628.39644774422049522
 10
4371595.05044470634311438
 20
6554635.58910980354994535
 10
4371462.59760727360844612
 20
6554713.36532872729003429
 10
4371310.36327310092747211
 20
6554673.47974019777029753
 10
4371192.74678858742117882
 20
6554651.65104142762720585
 97
     0
 75
     0
 76
     1
 98
     0
  0
ENDSEC
  0
SECTION
  2
OBJECTS
  0
DICTIONARY
  5
C
330
0
100
AcDbDictionary
281
     1
  3
ACAD_GROUP
350
D
  3
ACAD_LAYOUT
350
1A
  3
ACAD_MLEADERSTYLE
350
43
  3
ACAD_MLINESTYLE
350
17
  3
ACAD_PLOTSETTINGS
350
19
  3
ACAD_PLOTSTYLENAME
350
E
  3
ACAD_TABLESTYLE
350
42
  3
ACAD_VISUALSTYLE
350
2A
  0
DICTIONARY
  5
D
102
{ACAD_REACTORS
330
C
102
}
330
C
100
AcDbDictionary
281
     1
  0
DICTIONARY
  5
1A
102
{ACAD_REACTORS
330
C
102
}
330
C
100
AcDbDictionary
281
     1
  3
Layout1
350
1E
  3
Layout2
350
26
  3
Model
350
22
  0
DICTIONARY
  5
43
102
{ACAD_REACTORS
330
C
102
}
330
C
100
AcDbDictionary
281
     1
  0
DICTIONARY
  5
17
102
{ACAD_REACTORS
330
C
102
}
330
C
100
AcDbDictionary
281
     1
  3
Standard
350
18
  0
DICTIONARY
  5
19
102
{ACAD_REACTORS
330
C
102
}
330
C
100
AcDbDictionary
281
     1
  0
ACDBDICTIONARYWDFLT
  5
E
102
{ACAD_REACTORS
330
C
102
}
330
C
100
AcDbDictionary
281
     1
  3
Normal
350
F
100
AcDbDictionaryWithDefault
340
F
  0
DICTIONARY
  5
42
102
{ACAD_REACTORS
330
C
102
}
330
C
100
AcDbDictionary
281
     1
  0
DICTIONARY
  5
2A
102
{ACAD_REACTORS
330
C
102
}
330
C
100
AcDbDictionary
281
     1
  3
2dWireframe
350
2F
  3
3D Hidden
350
31
  3
3dWireframe
350
30
  3
Basic
350
32
  3
Brighten
350
36
  3
ColorChange
350
3A
  3
Conceptual
350
34
  3
Dim
350
35
  3
Facepattern
350
39
  3
Flat
350
2B
  3
FlatWithEdges
350
2C
  3
Gouraud
350
2D
  3
GouraudWithEdges
350
2E
  3
Linepattern
350
38
  3
Realistic
350
33
  3
Thicken
350
37
  0
LAYOUT
  5
1E
102
{ACAD_REACTORS
330
1A
102
}
330
1A
100
AcDbPlotSettings
  1

  2
none_device
  4

  6

 40
0.0
 41
0.0
 42
0.0
 43
0.0
 44
0.0
 45
0.0
 46
0.0
 47
0.0
 48
0.0
 49
0.0
140
0.0
141
0.0
142
1.0
143
1.0
 70
   688
 72
     0
 73
     0
 74
     5
  7

 75
    16
 76
     0
 77
     2
 78
   300
147
1.0
148
0.0
149
0.0
100
AcDbLayout
  1
Layout1
 70
     1
 71
     1
 10
0.0
 20
0.0
 11
12.0
 21
9.0
 12
0.0
 22
0.0
 32
0.0
 14
1.000000000000000E+20
 24
1.000000000000000E+20
 34
1.000000000000000E+20
 15
-1.000000000000000E+20
 25
-1.000000000000000E+20
 35
-1.000000000000000E+20
146
0.0
 13
0.0
 23
0.0
 33
0.0
 16
1.0
 26
0.0
 36
0.0
 17
0.0
 27
1.0
 37
0.0
 76
     0
330
1B
  0
LAYOUT
  5
26
102
{ACAD_REACTORS
330
1A
102
}
330
1A
100
AcDbPlotSettings
  1

  2
none_device
  4

  6

 40
0.0
 41
0.0
 42
0.0
 43
0.0
 44
0.0
 45
0.0
 46
0.0
 47
0.0
 48
0.0
 49
0.0
140
0.0
141
0.0
142
1.0
143
1.0
 70
   688
 72
     0
 73
     0
 74
     5
  7

 75
    16
 76
     0
 77
     2
 78
   300
147
1.0
148
0.0
149
0.0
100
AcDbLayout
  1
Layout2
 70
     1
 71
     2
 10
0.0
 20
0.0
 11
0.0
 21
0.0
 12
0.0
 22
0.0
 32
0.0
 14
0.0
 24
0.0
 34
0.0
 15
0.0
 25
0.0
 35
0.0
146
0.0
 13
0.0
 23
0.0
 33
0.0
 16
1.0
 26
0.0
 36
0.0
 17
0.0
 27
1.0
 37
0.0
 76
     0
330
23
  0
LAYOUT
  5
22
102
{ACAD_REACTORS
330
1A
102
}
330
1A
100
AcDbPlotSettings
  1

  2
none_device
  4

  6

 40
0.0
 41
0.0
 42
0.0
 43
0.0
 44
0.0
 45
0.0
 46
0.0
 47
0.0
 48
0.0
 49
0.0
140
0.0
141
0.0
142
1.0
143
1.0
 70
  1712
 72
     0
 73
     0
 74
     0
  7

 75
     0
 76
     0
 77
     2
 78
   300
147
1.0
148
0.0
149
0.0
100
AcDbLayout
  1
Model
 70
     1
 71
     0
 10
0.0
 20
0.0
 11
12.0
 21
9.0
 12
0.0
 22
0.0
 32
0.0
 14
30.0
 24
49.75
 34
0.0
 15
130.5
 25
163.1318914119703
 35
0.0
146
0.0
 13
0.0
 23
0.0
 33
0.0
 16
1.0
 26
0.0
 36
0.0
 17
0.0
 27
1.0
 37
0.0
 76
     0
330
1F
331
29
  0
MLINESTYLE
  5
18
102
{ACAD_REACTORS
330
17
102
}
330
17
100
AcDbMlineStyle
  2
Standard
 70
     0
  3

 62
   256
 51
90.0
 52
90.0
 71
     2
 49
0.5
 62
   256
  6
BYLAYER
 49
-0.5
 62
   256
  6
BYLAYER
  0
ACDBPLACEHOLDER
  5
F
102
{ACAD_REACTORS
330
E
102
}
330
E
  0
VISUALSTYLE
  5
2F
102
{ACAD_REACTORS
330
2A
102
}
330
2A
100
AcDbVisualStyle
  2
2dWireframe
 70
     4
 71
     0
 72
     2
 73
     0
 90
        0
 40
-0.6
 41
-30.0
 62
     5
 63
     7
421
 16777215
 74
     1
 91
        4
 64
     7
 65
   257
 75
     1
175
     1
 42
1.0
 92
        0
 66
   257
 43
1.0
 76
     1
 77
     6
 78
     2
 67
     7
 79
     5
170
     0
171
     0
290
     0
174
     0
 93
        1
 44
0.0
173
     0
291
     0
 45
0.0
1001
ACAD
1000
AcDbSavedByObjectVersion
1070
     0
  0
VISUALSTYLE
  5
31
102
{ACAD_REACTORS
330
2A
102
}
330
2A
100
AcDbVisualStyle
  2
3D Hidden
 70
     6
 71
     1
 72
     2
 73
     2
 90
        0
 40
-0.6
 41
-30.0
 62
     5
 63
     7
421
 16777215
 74
     2
 91
        2
 64
     7
 65
   257
 75
     2
175
     1
 42
40.0
 92
        0
 66
   257
 43
1.0
 76
     1
 77
     6
 78
     2
 67
     7
 79
     3
170
     0
171
     0
290
     0
174
     0
 93
        1
 44
0.0
173
     0
291
     0
 45
0.0
1001
ACAD
1000
AcDbSavedByObjectVersion
1070
     0
  0
VISUALSTYLE
  5
30
102
{ACAD_REACTORS
330
2A
102
}
330
2A
100
AcDbVisualStyle
  2
3dWireframe
 70
     5
 71
     0
 72
     2
 73
     0
 90
        0
 40
-0.6
 41
-30.0
 62
     5
 63
     7
421
 16777215
 74
     1
 91
        4
 64
     7
 65
   257
 75
     1
175
     1
 42
1.0
 92
        0
 66
   257
 43
1.0
 76
     1
 77
     6
 78
     2
 67
     7
 79
     5
170
     0
171
     0
290
     0
174
     0
 93
        1
 44
0.0
173
     0
291
     0
 45
0.0
1001
ACAD
1000
AcDbSavedByObjectVersion
1070
     0
  0
VISUALSTYLE
  5
32
102
{ACAD_REACTORS
330
2A
102
}
330
2A
100
AcDbVisualStyle
  2
Basic
 70
     7
 71
     1
 72
     0
 73
     1
 90
        0
 40
-0.6
 41
-30.0
 62
     5
 63
     7
421
 16777215
 74
     0
 91
        4
 64
     7
 65
   257
 75
     1
175
     1
 42
1.0
 92
        8
 66
     7
 43
1.0
 76
     1
 77
     6
 78
     2
 67
     7
 79
     5
170
     0
171
     0
290
     0
174
     0
 93
        1
 44
0.0
173
     0
291
     1
 45
0.0
1001
ACAD
1000
AcDbSavedByObjectVersion
1070
     0
  0
VISUALSTYLE
  5
36
102
{ACAD_REACTORS
330
2A
102
}
330
2A
100
AcDbVisualStyle
  2
Brighten
 70
    12
 71
     2
 72
     2
 73
     0
 90
        0
 40
-0.6
 41
-30.0
 62
     5
 63
     7
421
 16777215
 74
     1
 91
        4
 64
     7
 65
   257
 75
     1
175
     1
 42
1.0
 92
        8
 66
     7
 43
1.0
 76
     1
 77
     6
 78
     2
 67
     7
 79
     5
170
     0
171
     0
290
     0
174
     0
 93
        1
 44
50.0
173
     0
291
     1
 45
0.0
1001
ACAD
1000
AcDbSavedByObjectVersion
1070
     0
  0
VISUALSTYLE
  5
3A
102
{ACAD_REACTORS
330
2A
102
}
330
2A
100
AcDbVisualStyle
  2
ColorChange
 70
    16
 71
     2
 72
     2
 73
     3
 90
        0
 40
-0.6
 41
-30.0
 62
     5
 63
     8
421
  8421504
 74
     1
 91
        4
 64
     7
 65
   257
 75
     1
175
     1
 42
1.0
 92
        8
 66
     8
424
  8421504
 43
1.0
 76
     1
 77
     6
 78
     2
 67
     7
 79
     5
170
     0
171
     0
290
     0
174
     0
 93
        1
 44
0.0
173
     0
291
     1
 45
0.0
1001
ACAD
1000
AcDbSavedByObjectVersion
1070
     0
  0
VISUALSTYLE
  5
34
102
{ACAD_REACTORS
330
2A
102
}
330
2A
100
AcDbVisualStyle
  2
Conceptual
 70
     9
 71
     3
 72
     2
 73
     0
 90
        0
 40
-0.6
 41
-30.0
 62
     5
 63
     7
421
 16777215
 74
     2
 91
        2
 64
     7
 65
   257
 75
     1
175
     1
 42
40.0
 92
        8
 66
     7
 43
1.0
 76
     1
 77
     6
 78
     2
 67
     7
 79
     3
170
     0
171
     0
290
     0
174
     0
 93
        1
 44
0.0
173
     0
291
     0
 45
0.0
1001
ACAD
1000
AcDbSavedByObjectVersion
1070
     0
  0
VISUALSTYLE
  5
35
102
{ACAD_REACTORS
330
2A
102
}
330
2A
100
AcDbVisualStyle
  2
Dim
 70
    11
 71
     2
 72
     2
 73
     0
 90
        0
 40
-0.6
 41
-30.0
 62
     5
 63
     7
421
 16777215
 74
     1
 91
        4
 64
     7
 65
   257
 75
     1
175
     1
 42
1.0
 92
        8
 66
     7
 43
1.0
 76
     1
 77
     6
 78
     2
 67
     7
 79
     5
170
     0
171
     0
290
     0
174
     0
 93
        1
 44
-50.0
173
     0
291
     1
 45
0.0
1001
ACAD
1000
AcDbSavedByObjectVersion
1070
     0
  0
VISUALSTYLE
  5
39
102
{ACAD_REACTORS
330
2A
102
}
330
2A
100
AcDbVisualStyle
  2
Facepattern
 70
    15
 71
     2
 72
     2
 73
     0
 90
        0
 40
-0.6
 41
-30.0
 62
     5
 63
     7
421
 16777215
 74
     1
 91
        4
 64
     7
 65
   257
 75
     1
175
     1
 42
1.0
 92
        8
 66
     7
 43
1.0
 76
     1
 77
     6
 78
     2
 67
     7
 79
     5
170
     0
171
     0
290
     0
174
     0
 93
        1
 44
0.0
173
     0
291
     1
 45
0.0
1001
ACAD
1000
AcDbSavedByObjectVersion
1070
     0
  0
VISUALSTYLE
  5
2B
102
{ACAD_REACTORS
330
2A
102
}
330
2A
100
AcDbVisualStyle
  2
Flat
 70
     0
 71
     2
 72
     1
 73
     1
 90
        2
 40
-0.6
 41
30.0
 62
     5
 63
     7
421
 16777215
 74
     0
 91
        4
 64
     7
 65
   257
 75
     1
175
     1
 42
1.0
 92
        8
 66
     7
 43
1.0
 76
     1
 77
     6
 78
     2
 67
     7
 79
     5
170
     0
171
     0
290
     0
174
     0
 93
       13
 44
0.0
173
     0
291
     1
 45
0.0
1001
ACAD
1000
AcDbSavedByObjectVersion
1070
     0
  0
VISUALSTYLE
  5
2C
102
{ACAD_REACTORS
330
2A
102
}
330
2A
100
AcDbVisualStyle
  2
FlatWithEdges
 70
     1
 71
     2
 72
     1
 73
     1
 90
        2
 40
-0.6
 41
30.0
 62
     5
 63
     7
421
 16777215
 74
     1
 91
        4
 64
     7
 65
   257
 75
     1
175
     1
 42
1.0
 92
        0
 66
   257
 43
1.0
 76
     1
 77
     6
 78
     2
 67
     7
 79
     5
170
     0
171
     0
290
     0
174
     0
 93
       13
 44
0.0
173
     0
291
     1
 45
0.0
1001
ACAD
1000
AcDbSavedByObjectVersion
1070
     0
  0
VISUALSTYLE
  5
2D
102
{ACAD_REACTORS
330
2A
102
}
330
2A
100
AcDbVisualStyle
  2
Gouraud
 70
     2
 71
     2
 72
     2
 73
     1
 90
        2
 40
-0.6
 41
30.0
 62
     5
 63
     7
421
 16777215
 74
     0
 91
        4
 64
     7
 65
   257
 75
     1
175
     1
 42
1.0
 92
        0
 66
     7
 43
1.0
 76
     1
 77
     6
 78
     2
 67
     7
 79
     5
170
     0
171
     0
290
     0
174
     0
 93
       13
 44
0.0
173
     0
291
     1
 45
0.0
1001
ACAD
1000
AcDbSavedByObjectVersion
1070
     0
  0
VISUALSTYLE
  5
2E
102
{ACAD_REACTORS
330
2A
102
}
330
2A
100
AcDbVisualStyle
  2
GouraudWithEdges
 70
     3
 71
     2
 72
     2
 73
     1
 90
        2
 40
-0.6
 41
30.0
 62
     5
 63
     7
421
 16777215
 74
     1
 91
        4
 64
     7
 65
   257
 75
     1
175
     1
 42
1.0
 92
        0
 66
   257
 43
1.0
 76
     1
 77
     6
 78
     2
 67
     7
 79
     5
170
     0
171
     0
290
     0
174
     0
 93
       13
 44
0.0
173
     0
291
     1
 45
0.0
1001
ACAD
1000
AcDbSavedByObjectVersion
1070
     0
  0
VISUALSTYLE
  5
38
102
{ACAD_REACTORS
330
2A
102
}
330
2A
100
AcDbVisualStyle
  2
Linepattern
 70
    14
 71
     2
 72
     2
 73
     0
 90
        0
 40
-0.6
 41
-30.0
 62
     5
 63
     7
421
 16777215
 74
     1
 91
        4
 64
     7
 65
   257
 75
     7
175
     7
 42
1.0
 92
        8
 66
     7
 43
1.0
 76
     1
 77
     6
 78
     2
 67
     7
 79
     5
170
     0
171
     0
290
     0
174
     0
 93
        1
 44
0.0
173
     0
291
     1
 45
0.0
1001
ACAD
1000
AcDbSavedByObjectVersion
1070
     0
  0
VISUALSTYLE
  5
33
102
{ACAD_REACTORS
330
2A
102
}
330
2A
100
AcDbVisualStyle
  2
Realistic
 70
     8
 71
     2
 72
     2
 73
     0
 90
        0
 40
-0.6
 41
-30.0
 62
     5
 63
     7
421
 16777215
 74
     1
 91
        0
 64
     7
 65
   257
 75
     1
175
     1
 42
1.0
 92
        8
 66
     8
424
  7895160
 43
1.0
 76
     1
 77
     6
 78
     2
 67
     7
 79
     5
170
     0
171
     0
290
     0
174
     0
 93
       13
 44
0.0
173
     0
291
     0
 45
0.0
1001
ACAD
1000
AcDbSavedByObjectVersion
1070
     0
  0
VISUALSTYLE
  5
37
102
{ACAD_REACTORS
330
2A
102
}
330
2A
100
AcDbVisualStyle
  2
Thicken
 70
    13
 71
     2
 72
     2
 73
     0
 90
        0
 40
-0.6
 41
-30.0
 62
     5
 63
     7
421
 16777215
 74
     1
 91
        4
 64
     7
 65
   257
 75
     1
175
     1
 42
1.0
 92
       12
 66
     7
 43
1.0
 76
     1
 77
     6
 78
     2
 67
     7
 79
     5
170
     0
171
     0
290
     0
174
     0
 93
        1
 44
0.0
173
     0
291
     1
 45
0.0
1001
ACAD
1000
AcDbSavedByObjectVersion
1070
     0
  0
ENDSEC
  0
EOF
